<?xml version="1.0" encoding="UTF-8" standalone="no"?>
<svg
   xmlns:dc="http://purl.org/dc/elements/1.1/"
   xmlns:cc="http://creativecommons.org/ns#"
   xmlns:rdf="http://www.w3.org/1999/02/22-rdf-syntax-ns#"
   xmlns:svg="http://www.w3.org/2000/svg"
   xmlns="http://www.w3.org/2000/svg"
   xmlns:sodipodi="http://sodipodi.sourceforge.net/DTD/sodipodi-0.dtd"
   xmlns:inkscape="http://www.inkscape.org/namespaces/inkscape"
   version="1.1"
   id="svg2"
   xml:space="preserve"
   width="578.06531"
   height="113.96747"
   viewBox="0 0 578.06531 113.96747"
   sodipodi:docname="Logistics (1).ai"><metadata
     id="metadata8"><rdf:RDF><cc:Work
         rdf:about=""><dc:format>image/svg+xml</dc:format><dc:type
           rdf:resource="http://purl.org/dc/dcmitype/StillImage" /></cc:Work></rdf:RDF></metadata><defs
     id="defs6"><clipPath
       clipPathUnits="userSpaceOnUse"
       id="clipPath18"><path
         d="M 7.231,14.432 H 224.045 V 77.837 H 7.231 Z"
         id="path16" /></clipPath></defs><sodipodi:namedview
     pagecolor="#ffffff"
     bordercolor="#666666"
     borderopacity="1"
     objecttolerance="10"
     gridtolerance="10"
     guidetolerance="10"
     inkscape:pageopacity="0"
     inkscape:pageshadow="2"
     inkscape:window-width="640"
     inkscape:window-height="480"
     id="namedview4" /><g
     id="g10"
     inkscape:groupmode="layer"
     inkscape:label="Logistics (1)"
     transform="matrix(1.3333333,0,0,-1.3333333,0,113.96747)"><g
       id="g12"><g
         id="g14"
         clip-path="url(#clipPath18)"><g
           id="g20"
           transform="translate(45.1253,34.8163)"><path
             d="m 0,0 1.343,0.473 c 0,0 0.501,2.129 1.168,4.96 C 2.694,5.177 2.884,4.925 3.087,4.681 5.063,2.284 7.912,0.451 11.352,-0.725 H -2.855 C -1.783,-0.523 -0.802,-0.283 0,0 m 161.202,-0.725 c 1.139,0.351 2.237,0.76 3.291,1.221 0.156,-0.37 0.363,-0.723 0.624,-1.039 0.054,-0.063 0.113,-0.122 0.17,-0.182 z m -7.311,-9.661 c 0.401,2.108 1.209,6.357 1.607,8.446 0.367,0.045 0.732,0.097 1.094,0.155 l -1.635,-8.601 z m -54.58,0 c 0.543,2.858 1.837,9.661 1.837,9.661 h -3.144 -5.773 c 1.177,3.879 5.416,17.848 6.248,20.591 0.492,-0.019 1.152,-0.044 1.877,-0.073 -0.348,-0.938 -0.621,-1.903 -0.811,-2.886 -0.89,-4.597 0.191,-9.032 3.044,-12.487 1.87,-2.269 4.427,-4.011 7.43,-5.145 h -7.806 l -1.837,-9.661 z M 37.61,2.031 40.128,0.897 c 1.391,-0.626 2.925,-1.168 4.541,-1.622 h -4.67 c 0,0 -0.293,-0.587 -0.504,-1.011 -0.031,0.492 -0.064,1.011 -0.064,1.011 h -8.113 c 2.269,0.7 4.38,1.628 6.292,2.756 M 0.582,18.619 c -2.985,-1.909 -5.805,-2.804 -8.833,-2.804 -2.225,0 -4.152,0.732 -5.156,1.955 -0.581,0.708 -0.775,1.492 -0.594,2.395 0.58,2.911 4.46,5.368 8.472,5.368 2.706,0 5.214,-1.01 7.662,-3.081 -0.654,-1.219 -1.175,-2.5 -1.551,-3.833 M 74.744,5.9 C 73.883,3.065 73.132,0.589 72.733,-0.725 H 72.656 64.98 c 3.95,1.31 7.501,3.496 9.764,6.625 M 28.817,16.949 c -0.454,-2.344 -2.862,-3.98 -5.858,-3.98 -1.456,0 -2.609,0.384 -3.164,1.056 -0.271,0.329 -0.407,0.752 -0.407,1.261 0,0.21 0.023,0.435 0.069,0.674 0.391,2.02 2.534,4.065 5.874,4.065 1.428,0 2.526,-0.379 3.094,-1.067 0.523,-0.634 0.501,-1.443 0.392,-2.009 m 37.641,6.345 v 0.001 l 0.003,-0.002 z m 12.506,-3.487 c -0.389,-1.281 -1.02,-3.358 -1.737,-5.724 -0.112,1.529 -0.587,2.92 -1.425,4.154 -0.342,0.506 -0.747,0.971 -1.202,1.405 1.615,0.061 3.389,0.128 4.364,0.165 m 65.109,-21.326 -0.455,-2.391 -0.633,2.656 c 0.359,-0.093 0.72,-0.184 1.088,-0.265 m -11.596,0.794 -1.144,-1.883 -0.951,0.533 c -0.619,0.347 -1.273,0.632 -1.956,0.864 0.495,0.12 0.956,0.252 1.359,0.399 l 1.334,0.485 c 0,0 0.604,2.648 1.305,5.718 0.174,-0.241 0.355,-0.477 0.547,-0.71 1.976,-2.397 4.825,-4.23 8.265,-5.406 h -0.432 z m -2.374,17.842 c -0.109,-0.564 -0.189,-1.122 -0.244,-1.672 -2.341,-1.568 -4.537,-2.308 -6.885,-2.308 -1.589,0 -2.965,0.518 -3.682,1.387 -0.407,0.493 -0.544,1.045 -0.42,1.688 0.419,2.166 3.356,4.064 6.285,4.064 1.826,0 3.542,-0.642 5.225,-1.957 -0.104,-0.397 -0.201,-0.797 -0.279,-1.202 m 25.113,2.908 c 1.427,0 2.525,-0.379 3.093,-1.067 0.523,-0.634 0.502,-1.443 0.392,-2.009 -0.453,-2.344 -2.862,-3.98 -5.858,-3.98 -1.456,0 -2.609,0.384 -3.163,1.056 -0.383,0.464 -0.498,1.115 -0.338,1.935 0.39,2.02 2.534,4.065 5.874,4.065 m 19.833,8.595 c -3.682,4.462 -10.177,7.022 -17.819,7.022 -8.071,0 -15.359,-2.728 -20.395,-7.177 0.443,2.782 0.815,5.115 0.815,5.115 l -2.185,0.651 c -3.09,0.923 -6.525,1.411 -9.933,1.411 -5.844,0 -11.443,-1.789 -15.963,-4.761 l 1.293,4.257 h -3.51 -31.483 l -0.413,-1.362 c -3.112,1.252 -6.536,1.866 -10.389,1.866 -7.2,0 -15.001,-2.786 -19.053,-8.162 -0.263,0.389 -0.544,0.769 -0.85,1.14 -3.681,4.462 -10.177,7.022 -17.818,7.022 -7.84,0 -14.937,-2.576 -19.954,-6.801 0.865,5.258 1.95,11.861 1.95,11.861 l -2.219,0.643 c -3.791,1.097 -8.004,1.676 -12.184,1.676 -15.336,0 -29.294,-9.749 -31.778,-22.193 -1.056,-5.293 0.177,-10.421 3.473,-14.44 2.809,-3.423 6.957,-5.865 11.885,-7.113 H -35.914 V -20.158 H 40.72 c 0,0 0.086,0.172 0.119,0.238 0.002,-0.043 0.014,-0.238 0.014,-0.238 h 9.316 l 1.264,2.06 -0.391,-2.06 h 21.063 l 0.306,1.612 c 1.851,-1.198 4.259,-1.839 7.021,-1.839 2.471,0 4.768,0.509 6.745,1.419 l -0.227,-1.192 h 12.569 4.145 12.819 l 0.048,0.256 c 1.369,-0.309 2.809,-0.483 4.183,-0.483 0.837,0 1.7,0.076 2.556,0.227 h 11.251 c 0,0 0.801,1.697 0.836,1.772 h 0.751 c 0.077,-0.604 0.228,-1.772 0.228,-1.772 h 5.195 6.957 5.612 4.144 12.82 l 1.727,9.092 h -0.634 c 0.118,0.62 0.16,0.843 0.238,1.249 h 0.453 l 1.727,9.092 h -0.933 c 0.776,0.708 1.327,1.626 1.522,2.655 0.234,1.232 -0.084,2.484 -0.874,3.437 -0.201,0.243 -0.431,0.459 -0.68,0.653 2.754,2.828 4.65,6.26 5.395,10.109 0.914,4.72 -0.109,9.039 -2.956,12.491"
             style="fill:#ffffff;fill-opacity:1;fill-rule:nonzero;stroke:none"
             id="path22" /></g><g
           id="g24"
           transform="translate(82.1135,31.4887)"><path
             d="m 0,0 0.538,-8.491 h 0.136 c 0.278,0.866 0.586,1.773 1.02,2.621 L 4.622,0 h 4.756 l 0.719,-8.491 h 0.136 c 0.249,0.829 0.527,1.697 0.907,2.509 L 13.999,0 h 6.456 l -8.73,-14.229 H 6.311 L 5.834,-6.491 H 5.63 C 5.422,-7.227 5.24,-7.944 4.904,-8.642 L 2.121,-14.229 H -3.157 L -6.433,0 Z"
             style="fill:#004999;fill-opacity:1;fill-rule:nonzero;stroke:none"
             id="path26" /></g><g
           id="g28"
           transform="translate(102.1145,31.4887)"><path
             d="M 0,0 H 5.98 L 5.069,-4.792 H 8.874 L 9.786,0 h 5.98 l -2.705,-14.229 h -5.98 l 0.94,4.943 H 4.215 l -0.94,-4.943 h -5.98 z"
             style="fill:#004999;fill-opacity:1;fill-rule:nonzero;stroke:none"
             id="path30" /></g><g
           id="g32"
           transform="translate(122.7376,24.2612)"><path
             d="m 0,0 c -0.308,-1.622 0.794,-2.736 2.674,-2.736 1.88,0 3.405,1.114 3.714,2.736 C 6.675,1.51 5.692,2.775 3.721,2.775 1.751,2.775 0.288,1.51 0,0 M 12.654,0.075 C 11.786,-4.492 7.03,-7.227 1.82,-7.227 c -5.21,0 -8.925,2.735 -8.057,7.302 0.85,4.473 5.661,7.379 10.848,7.379 5.187,0 8.893,-2.906 8.043,-7.379"
             style="fill:#004999;fill-opacity:1;fill-rule:nonzero;stroke:none"
             id="path34" /></g><g
           id="g36"
           transform="translate(136.7507,31.4887)"><path
             d="M 0,0 H 6.207 L 4.371,-9.662 H 9.58 L 8.713,-14.229 H -2.704 Z"
             style="fill:#004999;fill-opacity:1;fill-rule:nonzero;stroke:none"
             id="path38" /></g><g
           id="g40"
           transform="translate(161.0134,22.3544)"><path
             d="m 0,0 0.278,-0.208 c 0.974,-0.716 2.199,-1.302 3.626,-1.302 0.611,0 1.624,0.208 1.747,0.851 0.122,0.642 -0.683,0.698 -1.232,0.793 l -1.21,0.188 c -2.355,0.358 -4.168,1.547 -3.744,3.775 0.642,3.377 4.693,5.264 8.407,5.264 1.949,0 3.663,-0.395 5.178,-1.244 L 10.681,4.474 C 9.731,5.077 8.62,5.55 7.284,5.55 6.74,5.55 5.915,5.379 5.803,4.794 5.703,4.267 6.459,4.191 6.917,4.097 L 8.271,3.833 c 2.535,-0.492 4.215,-1.663 3.756,-4.077 -0.646,-3.397 -4.68,-5.077 -8.372,-5.077 -2.152,0 -4.551,0.49 -6.322,1.302 z"
             style="fill:#004999;fill-opacity:1;fill-rule:nonzero;stroke:none"
             id="path42" /></g><g
           id="g44"
           transform="translate(176.9334,17.2602)"><path
             d="M 0,0 H -6.57 L 2.07,14.229 H 8.933 L 12.322,0 H 5.753 L 5.524,1.773 H 0.835 Z M 5.404,5.152 5.156,7.662 C 5.089,8.267 5.095,8.888 5.096,9.493 H 4.869 L 2.912,5.152 Z"
             style="fill:#004999;fill-opacity:1;fill-rule:nonzero;stroke:none"
             id="path46" /></g><g
           id="g48"
           transform="translate(191.4407,31.4887)"><path
             d="M 0,0 H 6.205 L 4.37,-9.662 H 9.579 L 8.711,-14.229 H -2.705 Z"
             style="fill:#004999;fill-opacity:1;fill-rule:nonzero;stroke:none"
             id="path50" /></g><g
           id="g52"
           transform="translate(204.01,31.4887)"><path
             d="m 0,0 h 11.485 l -0.74,-3.887 H 5.513 L 5.255,-5.245 h 4.779 L 9.331,-8.944 H 4.552 L 4.286,-10.342 H 9.7 L 8.961,-14.229 H -2.704 Z"
             style="fill:#004999;fill-opacity:1;fill-rule:nonzero;stroke:none"
             id="path54" /></g><g
           id="g56"
           transform="translate(119.8015,57.0654)"><path
             d="M 0,0 7.837,0.294 1.262,-21.371 H 15.321 L 21.896,0.294 29.554,0 32.676,10.287 H 3.122 Z"
             style="fill:#d71327;fill-opacity:1;fill-rule:nonzero;stroke:none"
             id="path58" /></g><g
           id="g60"
           transform="translate(62.0276,51.2709)"><path
             d="m 0,0 c -0.698,-3.611 1.798,-6.089 6.057,-6.089 4.259,0 7.714,2.478 8.412,6.089 0.65,3.358 -1.577,6.172 -6.04,6.172 C 3.965,6.172 0.65,3.358 0,0 M 28.663,0.168 C 26.698,-9.993 15.925,-16.081 4.124,-16.081 c -11.801,0 -20.219,6.088 -18.253,16.249 1.925,9.951 12.823,16.417 24.572,16.417 11.75,0 20.146,-6.466 18.22,-16.417"
             style="fill:#d71327;fill-opacity:1;fill-rule:nonzero;stroke:none"
             id="path62" /></g><g
           id="g64"
           transform="translate(86.3215,38.0869)"><path
             d="m 0,0 c 4.012,-1.806 9.445,-2.897 14.319,-2.897 8.364,0 17.502,3.736 18.964,11.295 1.04,5.374 -2.767,7.977 -8.508,9.068 l -3.067,0.589 c -1.037,0.21 -2.749,0.378 -2.521,1.554 0.251,1.301 2.12,1.679 3.352,1.679 3.027,0 5.543,-1.05 7.695,-2.394 l 5.365,8.104 c -3.432,1.889 -7.314,2.771 -11.727,2.771 -8.415,0 -17.591,-4.198 -19.045,-11.714 -0.958,-4.955 3.148,-7.6 8.484,-8.398 l 2.74,-0.42 C 17.294,9.028 19.116,8.902 18.84,7.473 18.564,6.045 16.268,5.584 14.883,5.584 11.65,5.584 8.875,6.886 6.669,8.481 L 6.041,8.943 Z"
             style="fill:#d71327;fill-opacity:1;fill-rule:nonzero;stroke:none"
             id="path66" /></g><g
           id="g68"
           transform="translate(179.8465,66.5546)"><path
             d="m 0,0 c -2.813,0.84 -6.008,1.301 -9.189,1.301 -11.34,0 -21.646,-7.388 -23.432,-16.626 -1.748,-9.028 5.516,-16.04 16.548,-16.04 2.514,0 7.821,0.379 10.249,1.26 l 2.701,11.84 c -2.607,-1.805 -5.392,-2.938 -8.624,-2.938 -4.207,0 -7.331,2.686 -6.656,6.171 0.665,3.443 4.631,6.173 8.839,6.173 3.181,0 5.719,-1.47 7.643,-3.19 z"
             style="fill:#d71327;fill-opacity:1;fill-rule:nonzero;stroke:none"
             id="path70" /></g><g
           id="g72"
           transform="translate(200.3411,57.4433)"><path
             d="m 0,0 c 4.464,0 6.69,-2.814 6.041,-6.172 -0.699,-3.612 -4.155,-6.089 -8.413,-6.089 -4.258,0 -6.756,2.477 -6.057,6.089 C -7.779,-2.814 -4.464,0 0,0 m 2.014,10.412 c -11.749,0 -22.646,-6.466 -24.572,-16.416 -1.965,-10.161 6.452,-16.25 18.253,-16.25 11.801,0 22.574,6.089 24.539,16.25 1.926,9.95 -6.47,16.416 -18.22,16.416"
             style="fill:#d71327;fill-opacity:1;fill-rule:nonzero;stroke:none"
             id="path74" /></g><g
           id="g76"
           transform="translate(51.5247,73.6611)"><path
             d="m 0,0 c -3.509,1.015 -7.493,1.573 -11.461,1.573 -14.143,0 -26.997,-8.932 -29.225,-20.099 -2.178,-10.912 6.882,-19.389 20.64,-19.389 3.136,0 9.754,0.458 12.783,1.523 l 3.369,14.313 c -3.252,-2.182 -6.725,-3.552 -10.757,-3.552 -5.247,0 -9.142,3.248 -8.302,7.461 0.831,4.161 5.777,7.46 11.025,7.46 3.967,0 7.133,-1.776 9.533,-3.857 z"
             style="fill:#d71327;fill-opacity:1;fill-rule:nonzero;stroke:none"
             id="path78" /></g><g
           id="g80"
           transform="translate(214.4802,37.4726)"><path
             d="M 0,0 C 0.264,0 0.492,0 0.534,0.225 0.57,0.409 0.342,0.409 0.078,0.409 H -0.494 L -0.572,0 Z m 0.769,-1.286 h -0.62 l -0.391,0.887 H -0.648 L -0.816,-1.286 H -1.345 L -0.947,0.81 H 0.27 C 0.805,0.81 1.097,0.661 1.003,0.169 0.935,-0.19 0.654,-0.374 0.329,-0.399 Z M 1.627,-0.24 C 1.795,0.651 1.156,1.235 0.13,1.235 c -1.046,0 -1.888,-0.584 -2.057,-1.475 -0.169,-0.891 0.45,-1.481 1.495,-1.481 1.027,0 1.888,0.59 2.059,1.481 m -4.181,0 c 0.21,1.106 1.443,1.998 2.783,1.998 1.334,0 2.234,-0.892 2.025,-1.998 -0.212,-1.112 -1.451,-2.004 -2.784,-2.004 -1.341,0 -2.235,0.892 -2.024,2.004"
             style="fill:#d71327;fill-opacity:1;fill-rule:nonzero;stroke:none"
             id="path82" /></g><g
           id="g84"
           transform="translate(11.8215,17.2368)"><path
             d="M 0,0 H 65.802 L 65.798,0.023 H 65.743 L 64.911,3.641 H 0 Z"
             style="fill:#004999;fill-opacity:1;fill-rule:nonzero;stroke:none"
             id="path86" /></g><g
           id="g88"
           transform="translate(11.8215,22.4086)"><path
             d="M 0,0 H 64.558 L 63.72,3.641 H 0 Z"
             style="fill:#004999;fill-opacity:1;fill-rule:nonzero;stroke:none"
             id="path90" /></g><g
           id="g92"
           transform="translate(11.8215,27.6039)"><path
             d="M 0,0 H 63.342 L 63.057,1.327 62.475,3.858 H 0 Z"
             style="fill:#004999;fill-opacity:1;fill-rule:nonzero;stroke:none"
             id="path94" /></g><g
           id="g96"
           transform="translate(149.3211,31.4887)"><path
             d="m 0,0 h 11.485 l -0.74,-3.887 H 5.513 L 5.255,-5.245 h 4.78 L 9.331,-8.944 H 4.552 L 4.286,-10.342 H 9.7 L 8.961,-14.229 H -2.705 Z"
             style="fill:#004999;fill-opacity:1;fill-rule:nonzero;stroke:none"
             id="path98" /></g></g></g><g
       id="g100"
       transform="translate(238.0535,67.7553)"><path
         d="M 0,0 V -50.627"
         style="fill:none;stroke:#0033a1;stroke-width:2.781;stroke-linecap:butt;stroke-linejoin:miter;stroke-miterlimit:4;stroke-dasharray:none;stroke-opacity:1"
         id="path102" /></g><text
       transform="matrix(1,0,0,-1,252.9927,17.1284)"
       style="font-variant:normal;font-weight:normal;font-stretch:normal;font-size:48.19px;font-family:'Vectora LT Std Roman';-inkscape-font-specification:VectoraLTStd-Roman;writing-mode:lr-tb;fill:#0033a1;fill-opacity:1;fill-rule:nonzero;stroke:none"
       id="text106"><tspan
         x="0 21.29998 47.081631 71.080254 80.862823 102.1628 117.24627 127.02884 150.16003"
         y="0"
         sodipodi:role="line"
         id="tspan104">Logistics</tspan></text></g></svg>
